<svg xmlns="http://www.w3.org/2000/svg" xmlns:xlink="http://www.w3.org/1999/xlink" width="500" zoomAndPan="magnify" viewBox="0 0 375 374.999991" height="500" preserveAspectRatio="xMidYMid meet" version="1.0"><path fill="#f3b176" d="M 374.546875 242.988281 C 372.976562 233.417969 368.628906 224.566406 364.320312 215.871094 C 358.070312 203.242188 351.730469 190.460938 342.582031 179.730469 C 332.644531 168.066406 319.765625 159.273438 306.539062 151.535156 C 300.046875 147.738281 293.335938 144.128906 286.203125 141.84375 L 286.1875 141.867188 C 286.964844 137.535156 287.476562 133.15625 287.621094 128.738281 C 287.921875 119.246094 286.550781 109.765625 284.476562 100.496094 C 279.023438 76.089844 268.4375 52.414062 251.296875 34.195312 C 234.160156 15.976562 210.046875 3.640625 185.019531 3.566406 C 178.179688 3.542969 171.371094 4.410156 164.660156 5.734375 C 111.996094 16.132812 57.609375 64.34375 59.984375 121.90625 L 59.976562 121.90625 C 56.28125 123.691406 52.773438 125.808594 49.59375 128.28125 C 36.421875 138.527344 25.945312 151.972656 17.886719 166.582031 C 8.195312 184.125 1.773438 203.964844 2.820312 223.976562 C 3.710938 240.910156 9.902344 257.230469 18.347656 271.941406 C 26.375 285.925781 39.429688 296.617188 47.519531 310.519531 C 54.523438 322.554688 65.585938 331.761719 78.851562 336.027344 C 93.578125 340.765625 109.222656 340.660156 124.621094 340.527344 C 130.5 340.472656 136.457031 340.414062 142.152344 338.9375 C 151.570312 336.488281 159.375 330.464844 167.238281 324.558594 C 171.613281 331.777344 176.605469 338.65625 181.90625 345.21875 C 186.730469 351.195312 191.972656 357.058594 198.660156 360.839844 C 211.304688 367.992188 224.871094 372.957031 239.371094 373.921875 C 253.871094 374.878906 268.421875 372.882812 282.613281 369.777344 C 310.21875 363.742188 341.269531 346.757812 358.417969 324.300781 C 362.496094 318.960938 364.464844 312.34375 366.160156 305.847656 C 369.269531 293.988281 371.757812 281.960938 373.613281 269.835938 C 374.976562 260.953125 375.996094 251.867188 374.546875 242.988281 Z M 374.546875 242.988281 " fill-opacity="1" fill-rule="nonzero"/><path fill="#bb5c52" d="M 221.296875 87.320312 C 220.480469 92.632812 199.210938 95.085938 196.75 91.402344 C 194.300781 87.726562 194.253906 69.242188 205.339844 67.289062 C 212.300781 66.0625 222.109375 82 221.296875 87.320312 Z M 308.824219 289.640625 C 308.417969 283.921875 301.871094 271.652344 295.734375 273.289062 C 289.597656 274.925781 284.339844 293.695312 285.917969 296.585938 C 288.375 301.085938 309.230469 295.367188 308.824219 289.640625 Z M 319.050781 181.328125 C 314.449219 182.097656 312.097656 198.492188 313.324219 200.949219 C 314.554688 203.398438 330.097656 204.628906 330.910156 200.949219 C 331.726562 197.273438 323.957031 180.507812 319.050781 181.328125 Z M 238.878906 328.0625 C 236.835938 323.976562 226.613281 325.613281 224.152344 328.0625 C 221.703125 330.511719 222.53125 347.878906 224.152344 350.539062 C 225.316406 352.445312 240.929688 332.148438 238.878906 328.0625 Z M 126.40625 281.058594 C 122.085938 282.015625 120.269531 297.410156 126.40625 299.859375 C 132.546875 302.308594 144.8125 296.179688 144.8125 290.453125 C 144.804688 284.734375 130.085938 280.242188 126.40625 281.058594 Z M 35.765625 222.886719 C 36.316406 225.085938 48.242188 224.160156 55.121094 223.441406 C 57.796875 223.164062 59.710938 220.738281 59.375 218.070312 C 58.625 212.261719 57.074219 203.269531 54.585938 203.269531 C 50.898438 203.265625 34.128906 216.34375 35.765625 222.886719 Z M 152.988281 178.058594 C 151.757812 171.925781 139.082031 168.246094 136.21875 169.882812 C 133.351562 171.519531 132.945312 194.410156 136.21875 196.046875 C 136.21875 196.039062 154.214844 184.183594 152.988281 178.058594 Z M 103.09375 51.753906 C 100.738281 54.164062 96.953125 66.46875 99.414062 70.144531 C 101.863281 73.824219 118.632812 68.105469 119.453125 63.605469 C 120.269531 59.113281 105.023438 49.777344 103.09375 51.753906 Z M 234.386719 149.855469 C 231.324219 151.074219 229.882812 169.882812 234.386719 171.925781 C 238.886719 173.964844 256.472656 168.65625 256.878906 162.933594 C 257.285156 157.207031 238.472656 148.21875 234.386719 149.855469 Z M 227.394531 238.152344 C 227.394531 238.152344 233.5625 242.644531 235.199219 241.820312 C 236.835938 241 239.25 230.121094 239.066406 227.382812 C 238.886719 224.648438 230.285156 223.472656 230.285156 223.472656 Z M 88.246094 336.824219 C 90.175781 329.652344 80.589844 313.753906 76.910156 315.386719 C 73.230469 317.023438 67.09375 329.285156 67.09375 329.285156 C 67.09375 329.285156 81.4375 335.761719 88.246094 336.824219 Z M 124.023438 223.472656 C 124.875 223.835938 124.769531 238.03125 126.8125 237.878906 C 128.859375 237.730469 141.433594 228.875 141.433594 228.875 C 134.890625 227.785156 124.023438 223.472656 124.023438 223.472656 Z M 144.804688 112.660156 C 142.597656 114.0625 142.761719 121.242188 144.804688 122.878906 C 146.847656 124.511719 155.4375 120.015625 155.851562 117.769531 C 156.265625 115.523438 149.308594 109.796875 144.804688 112.660156 Z M 188.976562 2.09375 C 188.976562 2.09375 184.882812 9.652344 188.976562 11.289062 C 193.070312 12.921875 201.910156 8.328125 201.984375 3.882812 Z M 329.273438 237.878906 C 328.089844 239.570312 325.1875 246.71875 327.230469 249.175781 C 329.273438 251.632812 341.957031 250.8125 342.769531 247.132812 C 343.585938 243.457031 331.316406 234.964844 329.273438 237.878906 Z M 329.273438 237.878906 " fill-opacity="1" fill-rule="nonzero"/><path fill="#8b4338" d="M 376.394531 241.089844 C 374.773438 231.160156 370.316406 222.15625 366.003906 213.445312 C 359.78125 200.882812 353.359375 187.890625 344.007812 176.921875 C 333.113281 164.132812 318.761719 154.917969 307.480469 148.316406 C 301.578125 144.867188 295.191406 141.382812 288.308594 138.988281 C 288.941406 135.113281 289.363281 131.175781 289.492188 127.195312 C 289.769531 118.574219 288.75 109.457031 286.300781 98.484375 C 280.285156 71.539062 268.648438 48.308594 252.65625 31.308594 C 234.070312 11.550781 209.417969 0.171875 185.027344 0.0976562 C 178.722656 0.0664062 171.921875 0.800781 164.296875 2.304688 C 110.113281 13.007812 56.484375 61.796875 58.070312 119.179688 C 54.554688 120.957031 51.3125 122.976562 48.445312 125.207031 C 35.960938 134.925781 25.125 148 16.25 164.082031 C 5.121094 184.222656 -0.03125 203.875 0.941406 222.484375 C 1.757812 238.070312 7.066406 254.480469 16.71875 271.285156 C 20.855469 278.488281 26.324219 284.871094 31.617188 291.042969 C 36.707031 296.988281 41.976562 303.128906 45.898438 309.871094 C 53.257812 322.515625 64.75 331.875 78.277344 336.222656 C 90.890625 340.285156 104.035156 340.859375 116.964844 340.859375 C 119.53125 340.859375 122.09375 340.835938 124.636719 340.8125 C 130.554688 340.757812 136.667969 340.707031 142.625 339.160156 C 151.734375 336.796875 159.375 331.226562 166.726562 325.703125 C 170.609375 331.929688 175.101562 338.199219 180.449219 344.8125 C 185.320312 350.839844 190.78125 356.960938 197.738281 360.886719 C 212 368.941406 225.570312 373.296875 239.25 374.199219 C 241.746094 374.367188 244.285156 374.449219 246.871094 374.449219 C 257.65625 374.449219 269.34375 373.003906 283.011719 370.019531 C 313.378906 363.378906 343.5625 345.257812 359.910156 323.851562 C 364.214844 318.214844 366.257812 311.3125 367.980469 304.734375 C 371.085938 292.851562 373.613281 280.664062 375.464844 268.527344 C 376.742188 260.261719 377.953125 250.636719 376.394531 241.089844 Z M 190.125 4.046875 C 193.277344 4.265625 196.425781 4.6875 199.5625 5.289062 C 199.035156 6.074219 198.167969 6.902344 197.0625 7.640625 C 194.496094 9.34375 191.246094 10.1875 189.679688 9.554688 C 189.398438 9.441406 189.257812 9.296875 189.160156 9.035156 C 188.75 7.917969 189.382812 5.734375 190.125 4.046875 Z M 165.023438 5.984375 C 172.296875 4.542969 178.761719 3.851562 184.769531 3.851562 C 184.851562 3.851562 184.929688 3.851562 185.011719 3.851562 C 185.386719 3.851562 185.773438 3.867188 186.148438 3.875 C 185.464844 5.773438 184.898438 8.28125 185.628906 10.308594 C 186.089844 11.582031 187.007812 12.523438 188.285156 13.035156 C 189.105469 13.367188 190.019531 13.511719 190.96875 13.511719 C 193.726562 13.511719 196.835938 12.289062 199.132812 10.769531 C 201.230469 9.382812 202.65625 7.777344 203.363281 6.117188 C 220.40625 10.242188 236.738281 19.871094 249.925781 33.902344 C 265.460938 50.410156 276.769531 73.039062 282.644531 99.328125 C 285.027344 109.984375 286.007812 118.808594 285.742188 127.105469 C 285.230469 143.117188 279.800781 158.609375 274.554688 171.652344 C 270.882812 180.777344 266.304688 191.101562 258.363281 198.148438 C 253.027344 202.886719 246.351562 206.015625 239.40625 209.058594 C 223.535156 216.019531 204.59375 223.617188 184.476562 227.105469 C 163.785156 230.691406 144.226562 229.289062 127.898438 223.050781 C 126.851562 222.652344 125.8125 222.222656 124.777344 221.777344 C 124.769531 221.777344 124.761719 221.769531 124.753906 221.761719 C 106.355469 213.851562 90.320312 199.121094 79.339844 179.941406 C 70.519531 164.539062 64.46875 145.527344 62.3125 126.410156 C 55.707031 67.808594 110.082031 16.835938 165.023438 5.984375 Z M 234.324219 239.976562 C 233.367188 239.695312 231.421875 238.632812 229.515625 237.34375 C 230.359375 233.828125 231.292969 229.804688 231.890625 225.660156 C 234.410156 226.1875 236.707031 227.015625 237.199219 227.632812 C 237.289062 230.097656 235.433594 237.925781 234.324219 239.976562 Z M 126.632812 228.320312 C 126.574219 227.640625 126.527344 227.039062 126.476562 226.496094 C 126.503906 226.511719 126.535156 226.515625 126.574219 226.53125 C 129.039062 227.472656 131.585938 228.3125 134.1875 229.042969 C 131.84375 230.332031 129.535156 232.484375 128.292969 233.417969 C 127.945312 233.683594 127.597656 233.941406 127.25 234.195312 C 126.972656 232.363281 126.761719 229.914062 126.632812 228.320312 Z M 69.679688 328.378906 C 72.359375 323.351562 75.8125 318.109375 77.554688 317.167969 C 78.074219 317.316406 79.558594 318.402344 81.480469 321.199219 C 84.203125 325.160156 86.578125 330.78125 86.625 334.574219 C 84.203125 334.046875 81.796875 333.421875 79.421875 332.660156 C 76.023438 331.566406 72.765625 330.121094 69.679688 328.378906 Z M 141.683594 335.53125 C 136.179688 336.960938 130.296875 337.015625 124.605469 337.058594 C 113.257812 337.15625 101.621094 337.261719 90.355469 335.304688 C 90.652344 328.648438 85.34375 318.652344 81.105469 315.035156 C 78.84375 313.097656 77.160156 313.226562 76.15625 313.679688 C 72.839844 315.148438 68.558594 322.53125 66.476562 326.417969 C 59.480469 321.792969 53.527344 315.515625 49.148438 307.988281 C 45.054688 300.949219 39.671875 294.675781 34.476562 288.601562 C 29.292969 282.558594 23.941406 276.308594 19.980469 269.414062 C 10.632812 253.132812 5.488281 237.277344 4.707031 222.289062 C 3.769531 204.386719 8.753906 185.414062 19.539062 165.890625 C 28.171875 150.261719 38.675781 137.5625 50.761719 128.160156 C 53.03125 126.390625 55.558594 124.761719 58.289062 123.285156 C 58.371094 124.460938 58.476562 125.636719 58.613281 126.820312 C 60.828125 146.433594 67.042969 165.957031 76.105469 181.789062 C 87.332031 201.402344 103.703125 216.554688 122.53125 224.859375 C 122.667969 225.734375 122.804688 227.363281 122.910156 228.628906 C 123.1875 231.921875 123.414062 234.671875 123.925781 236.613281 C 120.601562 238.957031 117.171875 241.144531 113.566406 242.996094 C 113.023438 243.277344 113.316406 244.042969 113.859375 244.074219 C 118.910156 244.367188 123.277344 242.410156 127.289062 239.679688 C 129.664062 239.152344 136.332031 234.738281 141.886719 230.851562 C 148.492188 232.125 155.429688 232.773438 162.609375 232.773438 C 169.90625 232.773438 177.457031 232.109375 185.148438 230.773438 C 200.71875 228.078125 215.535156 222.992188 228.804688 217.609375 C 228.789062 218.660156 228.753906 219.691406 228.683594 220.714844 C 228.300781 226.199219 227.109375 231.429688 225.59375 237.699219 C 219.667969 262.183594 211.628906 289.585938 191.050781 304.921875 C 187.980469 307.210938 184.605469 309.238281 181.332031 311.207031 C 179.144531 312.523438 176.875 313.882812 174.695312 315.320312 C 171.507812 317.429688 168.390625 319.765625 165.375 322.035156 C 157.683594 327.8125 150.4375 333.253906 141.683594 335.53125 Z M 371.765625 267.96875 C 369.925781 279.980469 367.4375 292.027344 364.351562 303.792969 C 362.722656 310.007812 360.816406 316.496094 356.933594 321.582031 C 341.089844 342.328125 311.765625 359.898438 282.222656 366.355469 C 265.617188 369.988281 252.046875 371.285156 239.503906 370.464844 C 226.40625 369.597656 213.347656 365.398438 199.59375 357.625 C 193.183594 354 188.011719 348.195312 183.375 342.453125 C 178.050781 335.863281 173.578125 329.628906 169.742188 323.445312 C 172.042969 321.726562 174.386719 320.015625 176.746094 318.457031 C 178.867188 317.0625 181.089844 315.71875 183.246094 314.421875 C 183.625 314.199219 184.007812 313.964844 184.386719 313.738281 C 184.582031 318.3125 188.714844 323.097656 191.957031 325.570312 C 194.84375 327.769531 198.125 329.335938 200.726562 331.921875 C 203.460938 334.648438 206.019531 337.527344 208.769531 340.238281 C 208.960938 340.429688 209.34375 340.238281 209.238281 339.96875 C 207.140625 334.292969 204.539062 329.960938 199.503906 326.382812 C 196.375 324.160156 192.972656 322.457031 190.675781 319.269531 C 188.820312 316.707031 188.320312 314.410156 188.132812 311.449219 C 189.882812 310.339844 191.617188 309.1875 193.28125 307.945312 C 214.109375 292.421875 222.5625 265.664062 228.585938 241.234375 C 231.828125 243.3125 233.691406 243.804688 234.777344 243.804688 C 234.792969 243.804688 234.800781 243.804688 234.808594 243.804688 C 234.332031 246.757812 233.976562 249.71875 233.789062 252.703125 C 233.773438 252.972656 234.195312 253.101562 234.316406 252.847656 C 236.996094 246.960938 239.007812 240.796875 240.667969 234.558594 C 241.550781 231.226562 242.460938 227.867188 243.164062 224.5 C 243.5625 222.5625 244.007812 221.070312 242.734375 219.457031 C 242.664062 219.375 242.492188 219.320312 242.394531 219.367188 C 240.515625 220.148438 240.160156 221.648438 239.589844 223.511719 C 239.492188 223.84375 239.390625 224.175781 239.292969 224.503906 C 237.550781 223.148438 234.746094 222.367188 232.34375 221.921875 C 232.371094 221.613281 232.402344 221.304688 232.425781 220.996094 C 232.539062 219.382812 232.574219 217.738281 232.554688 216.082031 C 235.433594 214.875 238.238281 213.671875 240.945312 212.488281 C 248.167969 209.316406 255.136719 206.042969 260.882812 200.941406 C 269.425781 193.355469 274.230469 182.5625 278.058594 173.046875 C 281.722656 163.9375 285.472656 153.644531 287.660156 142.75 C 294.039062 145.03125 300.039062 148.316406 305.613281 151.578125 C 316.636719 158.03125 330.644531 167.019531 341.179688 179.378906 C 350.222656 189.988281 356.546875 202.765625 362.664062 215.132812 C 366.847656 223.59375 371.183594 232.351562 372.714844 241.722656 C 374.167969 250.699219 372.984375 259.980469 371.765625 267.96875 Z M 203.90625 95.027344 C 207.113281 95.027344 210.550781 94.574219 213.121094 94.003906 C 217.390625 93.0625 222.601562 91.183594 223.152344 87.597656 C 223.867188 82.972656 218.980469 74.222656 214.148438 69.492188 C 210.941406 66.355469 207.789062 64.953125 205.023438 65.445312 C 200.816406 66.191406 197.542969 69.023438 195.566406 73.648438 C 192.769531 80.183594 193.085938 89.269531 195.207031 92.449219 C 196.472656 94.363281 200.023438 95.027344 203.90625 95.027344 Z M 199.007812 75.121094 C 200.484375 71.667969 202.722656 69.65625 205.664062 69.136719 C 207.148438 68.878906 209.277344 69.980469 211.515625 72.171875 C 216.417969 76.964844 219.816406 84.589844 219.441406 87.03125 C 219.386719 87.371094 218.378906 88.613281 214.578125 89.761719 C 207.496094 91.898438 199.316406 91.464844 198.3125 90.363281 C 197.265625 88.78125 196.414062 81.191406 199.007812 75.121094 Z M 310.695312 289.503906 C 310.339844 284.597656 306.285156 276.304688 301.578125 272.941406 C 298.917969 271.042969 296.667969 271.097656 295.25 271.472656 C 291.632812 272.4375 288.894531 277.253906 287.234375 281.117188 C 285.125 286.039062 282.71875 294.636719 284.273438 297.484375 C 285.359375 299.464844 287.90625 300.070312 290.613281 300.070312 C 294.144531 300.070312 297.9375 299.042969 299.082031 298.707031 C 301.910156 297.882812 311.070312 294.78125 310.695312 289.503906 Z M 298.214844 295.066406 C 291.777344 296.988281 288.003906 296.316406 287.582031 295.722656 C 287.070312 294.160156 288.644531 286.28125 291.804688 280.238281 C 293.976562 276.09375 295.613281 275.269531 296.222656 275.105469 C 297.152344 274.855469 298.222656 275.15625 299.40625 276 C 303.425781 278.863281 306.707031 286.21875 306.960938 289.777344 C 307.03125 290.847656 303.960938 293.347656 298.214844 295.066406 Z M 323.527344 205.117188 C 324.796875 205.117188 325.917969 205.058594 326.734375 204.953125 C 330.292969 204.515625 332.3125 203.300781 332.742188 201.351562 C 333.566406 197.65625 328.851562 186.882812 324.34375 182.128906 C 322.398438 180.070312 320.511719 179.179688 318.738281 179.476562 C 317.066406 179.753906 315.601562 181.09375 314.398438 183.460938 C 311.871094 188.425781 310.273438 199.042969 311.644531 201.777344 C 312.941406 204.363281 319.132812 205.117188 323.527344 205.117188 Z M 318.015625 184.652344 C 318.816406 183.28125 319.335938 183.175781 319.359375 183.175781 C 319.601562 183.144531 320.382812 183.402344 321.621094 184.703125 C 325.691406 189 329.363281 198.320312 329.101562 200.429688 C 328.828125 200.664062 327.765625 201.152344 325.253906 201.335938 C 320.722656 201.652344 316.011719 200.671875 314.96875 199.992188 C 314.496094 198.027344 315.535156 188.9375 318.015625 184.652344 Z M 235.207031 323.878906 C 230.917969 323.179688 225.019531 324.542969 222.832031 326.738281 C 219.5 330.066406 220.675781 348.429688 222.554688 351.519531 C 222.910156 352.09375 223.566406 352.535156 224.394531 352.535156 C 224.816406 352.535156 225.285156 352.425781 225.773438 352.152344 C 227.953125 350.945312 232.246094 345.648438 235.359375 341.039062 C 242.316406 330.730469 241 328.09375 240.5625 327.226562 C 239.941406 325.996094 238.519531 324.414062 235.207031 323.878906 Z M 231.890625 339.464844 C 229.183594 343.40625 226.71875 346.296875 225.222656 347.78125 C 224.289062 342.953125 224.078125 331.167969 225.488281 329.382812 C 226.414062 328.453125 229.6875 327.4375 232.757812 327.4375 C 233.390625 327.4375 234.015625 327.480469 234.613281 327.582031 C 235.394531 327.707031 236.785156 328.046875 237.183594 328.839844 C 237.386719 329.675781 236.136719 333.292969 231.890625 339.464844 Z M 125.707031 301.597656 C 126.921875 302.082031 128.261719 302.300781 129.664062 302.300781 C 133.667969 302.300781 138.117188 300.550781 141.210938 298.457031 C 144.738281 296.066406 146.683594 293.226562 146.683594 290.460938 C 146.683594 288.464844 145.574219 286.558594 143.378906 284.800781 C 138.71875 281.066406 129.492188 278.457031 126 279.234375 C 122.589844 279.988281 120.992188 285.058594 120.652344 289.164062 C 120.253906 294.039062 121.378906 299.867188 125.707031 301.597656 Z M 124.394531 289.46875 C 124.71875 285.429688 126.144531 283.039062 126.8125 282.890625 C 126.996094 282.851562 127.230469 282.828125 127.515625 282.828125 C 130.28125 282.828125 137.378906 284.789062 141.042969 287.726562 C 142.273438 288.707031 142.941406 289.679688 142.941406 290.460938 C 142.941406 291.886719 141.480469 293.761719 139.113281 295.359375 C 135.167969 298.027344 129.898438 299.242188 127.109375 298.125 C 125.15625 297.339844 124.039062 293.785156 124.394531 289.46875 Z M 102.859375 73.207031 C 104.035156 73.207031 105.382812 73.046875 106.914062 72.730469 C 112.433594 71.59375 120.539062 68.113281 121.300781 63.9375 C 122.183594 59.105469 113.128906 53.28125 109.570312 51.445312 C 105.574219 49.386719 103.09375 49.070312 101.757812 50.441406 C 99.117188 53.144531 94.675781 66.410156 97.859375 71.1875 C 98.742188 72.535156 100.421875 73.207031 102.859375 73.207031 Z M 104.179688 53.363281 C 106.09375 53.554688 112.546875 56.996094 116.015625 60.726562 C 117.417969 62.234375 117.636719 63.09375 117.609375 63.273438 C 117.441406 64.207031 114.265625 66.734375 108.558594 68.449219 C 103.695312 69.914062 101.289062 69.4375 100.972656 69.113281 C 99.308594 66.613281 102.140625 56.0625 104.179688 53.363281 Z M 229.65625 161.035156 C 229.566406 165.03125 229.960938 171.976562 233.609375 173.636719 C 234.535156 174.058594 235.789062 174.246094 237.226562 174.246094 C 242.078125 174.246094 249.097656 172.105469 253.476562 169.503906 C 256.8125 167.523438 258.589844 165.363281 258.75 163.070312 C 258.929688 160.589844 257.035156 157.894531 253.136719 155.054688 C 247.832031 151.179688 237.613281 146.554688 233.683594 148.121094 C 230.101562 149.546875 229.703125 159.128906 229.65625 161.035156 Z M 235.199219 151.558594 C 236.972656 151.136719 244.980469 153.734375 250.929688 158.074219 C 254.027344 160.335938 255.0625 162.03125 255.007812 162.800781 C 254.957031 163.523438 254.019531 164.8125 251.5625 166.28125 C 246.171875 169.484375 237.476562 171.277344 235.164062 170.222656 C 234.859375 170.085938 234.167969 169.152344 233.746094 166.628906 C 232.734375 160.652344 234.113281 152.84375 235.199219 151.558594 Z M 143.636719 124.339844 C 144.269531 124.84375 145.09375 125.09375 146.109375 125.09375 C 147.164062 125.09375 148.417969 124.820312 149.867188 124.277344 C 151.621094 123.625 155.933594 121.550781 157.308594 119.117188 C 160.828125 116.117188 163.792969 112.296875 166.167969 108.742188 C 166.371094 108.433594 165.941406 108.183594 165.699219 108.378906 C 162.78125 110.664062 159.683594 112.660156 156.710938 114.851562 C 155.941406 113.78125 154.835938 112.8125 153.71875 112.066406 C 150.226562 109.714844 146.515625 109.34375 143.796875 111.078125 C 141.871094 112.296875 141.433594 115.160156 141.351562 116.75 C 141.222656 119.296875 141.738281 122.816406 143.636719 124.339844 Z M 145.824219 114.234375 C 147.160156 113.390625 148.824219 113.796875 149.992188 114.28125 C 151.816406 115.039062 153.117188 116.269531 153.679688 117.054688 C 152.082031 118.183594 150.445312 119.335938 148.960938 120.601562 C 147.679688 121.136719 146.496094 121.460938 145.921875 121.339844 C 145.605469 120.972656 145.09375 119.59375 145.09375 117.542969 C 145.09375 115.628906 145.566406 114.445312 145.824219 114.234375 Z M 332.953125 252.460938 C 335.027344 252.460938 337.136719 252.191406 338.761719 251.796875 C 343.035156 250.757812 344.300781 248.914062 344.605469 247.539062 C 345.507812 243.480469 338.542969 238.167969 334.378906 236.34375 C 331.824219 235.222656 330.15625 235.242188 329.070312 235.71875 C 328.835938 233.5625 328.234375 231.460938 327.15625 229.480469 C 326.890625 228.996094 326.160156 229.328125 326.289062 229.847656 C 327.636719 235.234375 325.59375 240.757812 324.148438 245.898438 C 322.789062 250.734375 321.988281 255.617188 321.371094 260.597656 C 321.332031 260.894531 321.808594 261.007812 321.929688 260.75 C 323.339844 257.765625 324.960938 254.40625 326.324219 250.894531 C 327.773438 252.03125 330.335938 252.460938 332.953125 252.460938 Z M 337.183594 242.417969 C 340.011719 244.617188 340.9375 246.320312 340.945312 246.710938 C 340.878906 246.886719 340.125 247.640625 337.675781 248.203125 C 333.558594 249.144531 329.355469 248.601562 328.671875 247.976562 C 327.644531 246.75 329.410156 241.167969 330.683594 239.152344 C 331.5 239.117188 334.175781 240.074219 337.183594 242.417969 Z M 85.816406 148.589844 C 80.238281 143.328125 77.785156 135.71875 77.566406 128.25 C 77.515625 126.367188 80.199219 126.488281 80.417969 128.25 C 81.285156 135.347656 83.636719 141.792969 86.140625 148.40625 C 86.21875 148.589844 85.953125 148.707031 85.816406 148.589844 Z M 219.328125 197.460938 C 216.214844 201.636719 212.976562 205.871094 207.902344 207.640625 C 203.878906 209.050781 197.679688 209.253906 195.128906 205.183594 C 194.835938 204.71875 195.222656 204.109375 195.757812 204.101562 C 200.378906 204.0625 204.035156 204.785156 208.492188 202.835938 C 212.164062 201.222656 215.511719 199.238281 218.730469 196.867188 C 219.070312 196.601562 219.582031 197.113281 219.328125 197.460938 Z M 263.085938 125.128906 C 262.472656 123.082031 262.78125 121.289062 263.5 119.289062 C 264.222656 117.277344 265.082031 115.09375 266.355469 113.359375 C 266.671875 112.929688 267.488281 112.886719 267.609375 113.527344 C 268.023438 115.679688 267.730469 118.199219 267.214844 120.316406 C 266.6875 122.484375 265.792969 124.226562 263.90625 125.460938 C 263.597656 125.671875 263.183594 125.460938 263.085938 125.128906 Z M 231.21875 52.242188 C 230.515625 46.660156 228.457031 41.460938 228.21875 35.777344 C 228.21875 35.726562 228.277344 35.6875 228.324219 35.71875 C 234 39.566406 234.089844 46.449219 231.835938 52.324219 C 231.707031 52.671875 231.265625 52.597656 231.21875 52.242188 Z M 110.226562 160.894531 C 110.300781 161.019531 110.140625 161.203125 110.007812 161.113281 C 107.519531 159.363281 105.4375 157.359375 103.742188 154.804688 C 101.863281 151.980469 101.191406 149.484375 101.070312 146.175781 C 101.050781 145.597656 101.871094 145.402344 102.148438 145.882812 C 105 150.773438 107.253906 156.039062 110.226562 160.894531 Z M 94.78125 92.625 C 92.890625 89.730469 91.523438 87.582031 91.503906 83.972656 C 91.488281 81.066406 92.355469 77.574219 93.9375 75.121094 C 94.082031 74.894531 94.414062 74.992188 94.429688 75.253906 C 94.601562 78.140625 94.617188 81.058594 94.78125 83.972656 C 94.949219 86.820312 94.683594 89.769531 94.949219 92.585938 C 94.957031 92.675781 94.828125 92.691406 94.78125 92.625 Z M 58.824219 298.15625 C 58.882812 298.238281 58.777344 298.375 58.6875 298.335938 C 54.714844 296.820312 51.160156 294.28125 48.339844 291.109375 C 46.261719 288.765625 42.242188 284.691406 43.296875 281.296875 C 43.402344 280.96875 43.71875 280.792969 44.050781 280.871094 C 45.613281 281.214844 46.3125 282.148438 47.210938 283.429688 C 48.523438 285.300781 49.941406 287.085938 51.378906 288.855469 C 53.898438 291.9375 56.453125 294.976562 58.824219 298.15625 Z M 165.332031 308.847656 C 162.851562 312.253906 160.066406 313.332031 155.988281 314.015625 C 153.371094 314.453125 150.648438 314.808594 148.246094 316 C 146.027344 317.097656 144.234375 318.832031 142.257812 320.285156 C 136.820312 324.289062 125.457031 325.695312 123.121094 317.332031 C 123.050781 317.089844 123.308594 316.949219 123.503906 317.03125 C 127.101562 318.613281 130.757812 320.566406 134.820312 319.828125 C 138.839844 319.09375 141.457031 315.757812 144.707031 313.585938 C 147.496094 311.726562 150.648438 311.039062 153.921875 310.535156 C 157.449219 309.992188 161.773438 309.976562 165.066406 308.578125 C 165.21875 308.523438 165.457031 308.675781 165.332031 308.847656 Z M 169.054688 281.503906 C 168.761719 281.425781 168.8125 281.050781 169.054688 280.960938 C 172.15625 279.753906 174.257812 276.875 176.257812 274.328125 C 178.34375 271.660156 180.925781 269.589844 183.164062 267.101562 C 183.390625 266.855469 183.746094 267.171875 183.609375 267.441406 C 180.699219 272.996094 177.546875 283.582031 169.054688 281.503906 Z M 109.132812 292.316406 C 109.351562 292.414062 109.246094 292.796875 109.011719 292.773438 C 103.023438 292.140625 96.488281 290.484375 92.28125 285.835938 C 91.675781 285.164062 92.25 283.816406 93.238281 284.191406 C 98.777344 286.28125 103.75 289.867188 109.132812 292.316406 Z M 22.660156 200.1875 C 21.875 205.417969 21.105469 211.582031 22.167969 216.828125 C 22.296875 217.460938 21.453125 217.671875 21.21875 217.089844 C 19.429688 212.578125 17.878906 208.675781 18.316406 203.6875 C 18.542969 201.070312 18.761719 196.355469 21.90625 195.683594 C 23.382812 195.367188 22.710938 199.796875 22.660156 200.1875 Z M 353.960938 292.128906 C 353.894531 297.085938 352.007812 301.628906 349.015625 305.523438 C 347.742188 307.183594 346.261719 308.644531 344.90625 310.226562 C 342.769531 312.714844 342.402344 315.394531 341.949219 318.539062 C 341.316406 322.894531 340.433594 326.625 337.433594 329.984375 C 335.214844 332.46875 332.148438 335.175781 328.609375 334.382812 C 328.285156 334.308594 328.121094 333.886719 328.292969 333.609375 C 330.292969 330.414062 333.949219 328.777344 336.128906 325.597656 C 337.371094 323.773438 338.585938 321.851562 339.121094 319.699219 C 339.625 317.679688 339.738281 315.578125 340.351562 313.574219 C 341.421875 310.046875 343.652344 307.542969 345.914062 304.75 C 349.058594 300.859375 351.328125 296.421875 353.675781 292.042969 C 353.734375 291.910156 353.960938 291.96875 353.960938 292.128906 Z M 321.199219 327.84375 C 318.25 332.992188 313.710938 339.53125 306.886719 336.457031 C 306.496094 336.285156 306.59375 335.597656 307.007812 335.523438 C 312.015625 334.648438 315.1875 329.8125 317.527344 325.695312 C 318.875 323.316406 322.5625 325.464844 321.199219 327.84375 Z M 221.3125 321.207031 C 219.085938 323.023438 216.636719 324.6875 213.9375 325.6875 C 210.730469 326.871094 208.304688 326.691406 205.183594 325.597656 C 204.78125 325.457031 204.714844 324.828125 205.183594 324.71875 C 207.625 324.128906 209.835938 323.511719 212.367188 323.179688 C 215.496094 322.773438 218.234375 322.269531 221.144531 320.988281 C 221.273438 320.917969 221.445312 321.09375 221.3125 321.207031 Z M 268.9375 341.980469 C 267.140625 345.101562 264.496094 347.625 260.875 348.289062 C 257.730469 348.867188 254.125 348.550781 252.316406 345.640625 C 252.179688 345.421875 252.363281 345.183594 252.589844 345.167969 C 258.214844 344.722656 263.90625 346.058594 268.40625 341.574219 C 268.679688 341.308594 269.125 341.65625 268.9375 341.980469 Z M 257.585938 284.253906 C 254.390625 287.101562 250.476562 289.917969 246.15625 290.597656 C 242.90625 291.109375 238.253906 290.589844 236.148438 287.785156 C 236.121094 287.75 236.140625 287.6875 236.179688 287.667969 C 239.054688 286.292969 242.914062 287.703125 246.066406 287.136719 C 249.949219 286.445312 253.433594 284.78125 257.089844 283.402344 C 257.574219 283.226562 257.957031 283.929688 257.585938 284.253906 Z M 300.644531 183.257812 C 300.785156 180.90625 301.328125 178.53125 301.835938 176.226562 C 302.414062 173.539062 303.402344 170.417969 303.417969 167.667969 C 303.417969 167.417969 303.757812 167.394531 303.832031 167.613281 C 304.964844 170.757812 305.921875 172.972656 305.523438 176.4375 C 305.203125 179.136719 303.847656 181.960938 301.757812 183.71875 C 301.351562 184.050781 300.605469 183.867188 300.644531 183.257812 Z M 252.160156 188.222656 C 254.648438 187.011719 257.015625 185.714844 259.140625 183.929688 C 259.328125 183.769531 259.636719 183.972656 259.503906 184.207031 C 256.976562 188.503906 252.292969 194.371094 246.601562 192.652344 C 246.308594 192.5625 246.238281 192.222656 246.425781 192.007812 C 248.078125 190.101562 249.964844 189.292969 252.160156 188.222656 Z M 133.871094 169.988281 C 131.875 174.125 132.007812 183.445312 132.070312 185.578125 C 132.363281 196.203125 134.558594 197.304688 135.378906 197.710938 L 136.34375 198.191406 L 137.25 197.597656 C 141.421875 194.847656 154.3125 185.835938 154.894531 179.082031 C 159.636719 182.382812 163.957031 186.203125 168.59375 189.789062 C 168.664062 189.84375 168.8125 189.796875 168.769531 189.683594 C 165.972656 182.632812 159.804688 177.34375 153.386719 173.566406 C 152.753906 173.191406 152.097656 172.851562 151.433594 172.503906 C 149.917969 171.238281 148.207031 170.320312 146.945312 169.746094 C 143.921875 168.367188 140.125 167.410156 137.417969 167.652344 C 134.703125 167.078125 132.03125 166.394531 129.839844 164.644531 C 129.015625 163.988281 127.832031 164.789062 128.34375 165.796875 C 129.515625 168.050781 131.601562 169.203125 133.871094 169.988281 Z M 151.148438 178.421875 C 151.710938 181.246094 144.375 188.140625 136.753906 193.414062 C 136.238281 191.695312 135.75 188.125 135.796875 182.964844 C 135.847656 176.527344 136.683594 172.40625 137.273438 171.457031 C 137.527344 171.375 137.953125 171.335938 138.503906 171.359375 C 141.691406 172.300781 144.8125 173.363281 147.835938 174.863281 C 148.328125 175.105469 148.808594 175.359375 149.292969 175.617188 C 150.308594 176.527344 150.964844 177.492188 151.148438 178.421875 Z M 59.589844 208.546875 C 58.625 204.71875 57.570312 202.878906 56.5 202.042969 C 56.34375 201.773438 56.175781 201.492188 56.011719 201.230469 C 55.113281 199.78125 53.410156 198.085938 52.828125 196.503906 C 52.796875 196.429688 52.675781 196.390625 52.632812 196.480469 C 51.894531 197.980469 52.519531 199.203125 53.175781 200.648438 C 53.3125 200.941406 53.429688 201.25 53.558594 201.546875 C 49.375 202.59375 41.148438 209.214844 37.195312 214.265625 C 34.421875 217.820312 33.320312 220.875 33.9375 223.34375 C 34.445312 225.363281 36.738281 226.140625 42.316406 226.140625 C 42.566406 226.140625 42.820312 226.140625 43.085938 226.132812 C 47.121094 226.089844 51.960938 225.660156 55.308594 225.304688 C 56.890625 225.136719 58.332031 224.429688 59.417969 223.292969 C 59.832031 226.722656 60.066406 230.179688 60.1875 233.683594 C 60.195312 233.941406 60.558594 233.992188 60.640625 233.742188 C 62.496094 227.632812 62.636719 220.910156 61.339844 214.679688 C 60.917969 212.609375 60.324219 210.542969 59.589844 208.546875 Z M 56.90625 220.488281 C 56.417969 221.105469 55.714844 221.492188 54.925781 221.574219 C 43.742188 222.742188 38.910156 222.425781 37.527344 221.980469 C 37.507812 220.820312 38.289062 219.085938 39.738281 217.121094 C 44.050781 211.273438 52.125 205.71875 54.328125 205.183594 C 54.773438 205.742188 56.222656 208.273438 57.511719 218.3125 C 57.617188 219.09375 57.398438 219.871094 56.90625 220.488281 Z M 162.027344 215.992188 C 155.746094 219.433594 148.878906 218.09375 143.886719 213.277344 C 143.742188 213.140625 143.886719 212.839844 144.089844 212.925781 C 149.609375 215.183594 155.933594 215.789062 161.824219 215.238281 C 162.230469 215.199219 162.359375 215.800781 162.027344 215.992188 Z M 162.027344 215.992188 " fill-opacity="1" fill-rule="nonzero"/></svg>