<svg xmlns="http://www.w3.org/2000/svg" xmlns:xlink="http://www.w3.org/1999/xlink" width="500" zoomAndPan="magnify" viewBox="0 0 375 374.999991" height="500" preserveAspectRatio="xMidYMid meet" version="1.0"><defs><clipPath id="6ce35d7a96"><path d="M 67.105469 320 L 290 320 L 290 374 L 67.105469 374 Z M 67.105469 320 " clip-rule="nonzero"/></clipPath><clipPath id="68dd1bc5a8"><path d="M 140 2.046875 L 222 2.046875 L 222 212 L 140 212 Z M 140 2.046875 " clip-rule="nonzero"/></clipPath></defs><path fill="#ffffff" d="M 163.507812 7.753906 C 166.992188 10.019531 170.5625 12.675781 173.480469 15.679688 C 176.488281 18.773438 178.96875 22.300781 180.972656 26.089844 C 182.890625 29.746094 184.371094 33.753906 184.9375 37.847656 C 186.722656 51.21875 179.710938 64.109375 171.871094 74.390625 C 166.601562 81.269531 160.371094 87.457031 154.753906 94.074219 C 148.742188 101.21875 142.949219 108.710938 138.59375 116.984375 C 134.457031 124.910156 131.539062 133.667969 130.886719 142.636719 C 130.710938 145.296875 130.84375 147.953125 130.757812 150.609375 C 130.757812 150.609375 120 136.496094 120 116.679688 C 120.871094 98.996094 131.714844 84.710938 144.78125 73.738281 C 150.09375 69.292969 155.800781 65.289062 160.894531 60.625 C 168.910156 53.308594 174.875 43.859375 175.3125 32.796875 C 175.660156 22.691406 170.085938 14.808594 163.507812 7.753906 Z M 163.507812 7.753906 " fill-opacity="1" fill-rule="nonzero"/><path fill="#ffffff" d="M 229.753906 55.488281 C 233.976562 60.800781 237.460938 67.027344 239.8125 73.386719 C 243.558594 83.492188 244.472656 94.425781 242.601562 105.050781 C 239.554688 122.210938 229.316406 136.234375 216.554688 147.601562 C 207.539062 155.574219 197.566406 162.714844 189.683594 171.90625 C 185.675781 176.523438 182.238281 181.921875 179.710938 187.5 C 179.273438 188.5 178.839844 189.5 178.445312 190.546875 C 178.054688 191.550781 177.707031 192.59375 177.402344 193.640625 C 177.097656 194.683594 176.792969 195.730469 176.574219 196.773438 C 176.3125 197.820312 176.140625 198.867188 175.964844 199.953125 C 175.789062 201 175.703125 202.089844 175.617188 203.132812 C 175.527344 204.179688 175.527344 205.269531 175.527344 206.355469 C 175.527344 207.445312 175.617188 208.492188 175.703125 209.582031 C 175.835938 210.667969 175.964844 211.714844 176.183594 212.757812 C 176.398438 213.847656 176.660156 214.894531 176.964844 215.9375 C 177.097656 216.332031 177.226562 216.765625 177.359375 217.160156 C 177.53125 217.59375 177.664062 218.074219 177.882812 218.507812 C 177.882812 218.550781 177.96875 218.726562 178.011719 218.769531 C 177.183594 218.421875 175.835938 217.636719 175.222656 217.203125 C 168.34375 212.191406 165.949219 203.4375 164.683594 195.46875 C 163.988281 191.027344 164.03125 186.539062 164.378906 182.054688 C 165.121094 172.210938 168.429688 162.804688 173.785156 154.527344 C 178.273438 147.648438 184.195312 141.59375 189.988281 135.84375 C 199.570312 126.261719 209.894531 116.941406 217.820312 105.921875 C 225.136719 95.773438 230.320312 83.535156 230.929688 70.949219 C 231.148438 65.679688 230.582031 60.582031 229.753906 55.488281 Z M 229.753906 55.488281 " fill-opacity="1" fill-rule="nonzero"/><g clip-path="url(#6ce35d7a96)"><path fill="#ffffff" d="M 289.203125 320.117188 L 289.464844 320.117188 C 289.464844 320.511719 282.582031 328.089844 281.667969 329.046875 C 265.730469 346.425781 245.476562 358.621094 223.175781 366.023438 C 210.808594 370.117188 198.003906 372.730469 184.980469 373.296875 C 147.21875 374.996094 107.714844 360.101562 79.84375 334.664062 L 67.125 320.378906 C 77.316406 328.523438 89.292969 333.488281 101.664062 337.277344 C 118.824219 342.550781 136.15625 345.074219 153.925781 346.90625 C 168.386719 348.386719 182.933594 348.339844 197.394531 347.339844 C 220.605469 345.730469 243.34375 341.589844 265.074219 333.054688 C 273.566406 329.746094 282.148438 325.910156 289.203125 320.117188 Z M 289.203125 320.117188 " fill-opacity="1" fill-rule="nonzero"/></g><g clip-path="url(#68dd1bc5a8)"><path fill="#ffffff" d="M 162.113281 3.003906 C 171.21875 2.046875 182.019531 4.792969 190.121094 8.753906 C 203.140625 15.15625 213.203125 26.175781 217.90625 39.9375 C 221.171875 49.476562 221.828125 59.582031 220.347656 69.511719 C 216.773438 93.03125 199.570312 110.410156 183.195312 126.21875 C 174.65625 134.449219 165.949219 142.855469 160.675781 153.699219 C 156.0625 163.195312 154.011719 173.996094 155.144531 184.535156 C 155.84375 191.113281 157.804688 197.644531 159.980469 203.917969 L 162.722656 211.191406 L 158.71875 205.789062 C 155.496094 201.128906 153.1875 195.992188 150.878906 190.851562 C 148.742188 186.105469 146.652344 181.402344 144.910156 176.480469 C 141.820312 167.769531 139.726562 158.273438 140.164062 148.996094 C 140.902344 133.316406 149.046875 119.46875 159.066406 107.882812 L 170.257812 95.730469 C 175.574219 89.9375 180.710938 83.929688 185.242188 77.527344 C 190.6875 69.773438 195.042969 61.757812 196.695312 52.308594 C 198.613281 41.203125 196.042969 30.007812 189.464844 20.863281 C 182.890625 11.761719 173.265625 4.835938 162.113281 3.003906 Z M 162.113281 3.003906 " fill-opacity="1" fill-rule="nonzero"/></g><path fill="#ffffff" d="M 325.308594 223.257812 C 321.519531 215.460938 314.945312 209.972656 306.757812 207.226562 C 299.613281 204.832031 290.773438 204.832031 283.804688 207.839844 L 280.101562 209.535156 C 279.621094 209.753906 279.097656 210.144531 278.578125 210.101562 C 278.621094 208.535156 278.664062 206.96875 278.445312 205.441406 L 278.402344 205.050781 C 277.402344 198.824219 272.480469 193.988281 267.601562 190.503906 C 263.289062 187.410156 258.195312 185.058594 253.316406 183.054688 C 241.511719 178.222656 229.101562 175.390625 216.46875 173.824219 C 210.808594 173.125 205.058594 172.558594 199.394531 172.429688 C 194.910156 176.652344 191.207031 181.355469 188.074219 186.671875 C 198.175781 186.628906 208.105469 187.542969 218.082031 189.023438 C 227.878906 190.503906 237.550781 192.464844 246.828125 196.078125 C 251.355469 197.863281 256.320312 200.085938 259.804688 203.570312 C 261.15625 204.917969 262.59375 206.617188 262.503906 208.664062 C 262.375 211.105469 260.328125 213.28125 258.5 214.71875 C 252.445312 219.640625 243.253906 222.078125 235.808594 223.820312 C 218.167969 227.960938 199.875 229.351562 181.800781 229.398438 C 168.167969 229.441406 154.710938 228.789062 141.164062 227.175781 C 130.800781 225.957031 120.214844 223.910156 110.328125 220.46875 C 106.367188 219.074219 102.488281 217.59375 98.875 215.546875 C 96.566406 214.242188 94.039062 212.804688 92.472656 210.625 C 91.992188 209.972656 91.644531 209.144531 91.6875 208.316406 C 91.777344 206.488281 93.472656 205.09375 94.738281 203.960938 C 96.304688 202.613281 98.089844 201.523438 99.921875 200.519531 C 112.550781 193.640625 127.359375 190.765625 141.425781 188.371094 L 136.027344 174.824219 C 121.347656 177.566406 106.367188 180.269531 93.167969 187.671875 C 88.550781 190.285156 83.980469 193.421875 80.972656 197.90625 C 78.359375 201.785156 78.144531 206.183594 78.054688 210.667969 C 77.75 221.773438 78.492188 233.097656 80.277344 244.074219 C 81.410156 250.914062 83.019531 257.664062 85.242188 264.238281 C 86.855469 269.074219 88.945312 273.777344 91.035156 278.394531 C 102.664062 302.914062 123.132812 321.992188 148.742188 331.050781 C 171.480469 339.109375 197 337.234375 218.648438 326.914062 C 224.351562 324.167969 229.839844 320.640625 234.761719 316.679688 L 241.992188 310.539062 C 243.082031 309.578125 244.648438 307.621094 245.867188 307.097656 C 246.128906 306.964844 246.957031 307.054688 247.261719 307.007812 L 251.050781 306.703125 C 255.753906 306.226562 260.328125 305.660156 264.902344 304.570312 C 291.644531 298.125 316.46875 280.265625 325.789062 253.570312 C 329.054688 244.117188 329.796875 232.445312 325.308594 223.257812 Z M 250.527344 239.851562 L 234.414062 266.589844 C 224.484375 282.445312 212.375 297.863281 195.738281 307.007812 C 176.574219 317.550781 154.363281 318.160156 133.71875 312.191406 L 129.015625 310.753906 C 137.550781 309.882812 146.042969 308.535156 154.101562 305.398438 C 160.15625 303.046875 165.511719 299.5625 170.695312 295.730469 C 174.351562 293.027344 178.011719 290.242188 181.367188 287.148438 C 186.722656 282.316406 191.601562 276.957031 196.347656 271.511719 C 203.402344 263.414062 210.503906 254.789062 218.648438 247.777344 C 229.535156 238.367188 241.644531 231.183594 254.449219 224.691406 L 265.164062 219.597656 C 265.554688 219.511719 265.335938 219.554688 265.730469 219.597656 C 260.414062 226.21875 255.144531 232.664062 250.527344 239.851562 Z M 310.457031 253.785156 C 303.53125 269.378906 288.8125 281.703125 273.089844 287.714844 C 268.472656 289.589844 263.507812 290.71875 258.585938 291.589844 C 271.042969 272.472656 276.574219 251 278.792969 228.527344 C 283.757812 223.5625 289.160156 219.988281 296.347656 219.554688 C 299.003906 219.421875 301.441406 219.902344 303.882812 220.902344 C 308.0625 222.644531 311.328125 225.871094 312.984375 230.09375 C 315.902344 237.496094 313.550781 246.863281 310.457031 253.785156 Z M 310.457031 253.785156 " fill-opacity="1" fill-rule="nonzero"/></svg>