<svg xmlns="http://www.w3.org/2000/svg" xmlns:xlink="http://www.w3.org/1999/xlink" width="500" zoomAndPan="magnify" viewBox="0 0 375 374.999991" height="500" preserveAspectRatio="xMidYMid meet" version="1.0"><defs><clipPath id="7b4cd08da1"><path d="M 11 86.589844 L 361 86.589844 L 361 313 L 11 313 Z M 11 86.589844 " clip-rule="nonzero"/></clipPath></defs><path fill="#ea9052" d="M 373.832031 214.933594 C 373.832031 177.078125 339.28125 146.378906 296.691406 146.378906 C 276.550781 146.378906 258.222656 153.246094 244.480469 164.476562 L 60.796875 264.589844 C 59.316406 265.34375 57.863281 266.128906 56.445312 266.964844 L 56.347656 267.015625 L 56.351562 267.015625 C 35.105469 279.53125 21.085938 300.980469 21.085938 325.335938 C 21.085938 337.195312 21.835938 341.007812 29.683594 349.609375 C 42.503906 363.652344 70.96875 375.351562 99.34375 375.351562 C 125.144531 375.351562 152.105469 367.726562 166.703125 355.828125 L 349.816406 252.667969 C 352.917969 251.175781 355.804688 249.5625 358.410156 247.828125 L 358.429688 247.8125 C 361.851562 245.53125 364.792969 243.058594 367.132812 240.414062 C 374.527344 232.0625 373.832031 226.289062 373.832031 214.933594 Z M 373.832031 214.933594 " fill-opacity="1" fill-rule="nonzero"/><path fill="#f9b360" d="M 371.96875 204.066406 C 371.96875 166.671875 337.785156 136.339844 295.644531 136.339844 C 275.71875 136.339844 257.582031 143.121094 243.984375 154.21875 L 62.242188 253.121094 C 60.777344 253.867188 59.339844 254.648438 57.933594 255.46875 L 57.839844 255.519531 C 36.820312 267.886719 22.949219 289.070312 22.949219 313.140625 C 22.949219 324.851562 23.691406 328.621094 31.457031 337.117188 C 44.140625 350.988281 72.304688 362.550781 100.382812 362.550781 C 125.910156 362.550781 152.585938 355.015625 167.03125 343.261719 L 348.207031 241.347656 C 351.277344 239.871094 354.132812 238.273438 356.710938 236.5625 L 356.730469 236.550781 C 360.113281 234.296875 363.023438 231.847656 365.339844 229.242188 C 372.652344 220.988281 371.96875 215.285156 371.96875 204.066406 Z M 371.96875 204.066406 " fill-opacity="1" fill-rule="nonzero"/><path fill="#e25973" d="M 369.671875 201.65625 C 369.671875 164.261719 335.484375 133.929688 293.347656 133.929688 C 273.417969 133.929688 255.28125 140.710938 241.6875 151.808594 L 59.945312 250.710938 C 58.480469 251.457031 57.042969 252.238281 55.636719 253.058594 L 55.539062 253.109375 L 55.542969 253.113281 C 34.523438 265.476562 20.648438 286.660156 20.648438 310.730469 C 20.648438 322.445312 21.390625 326.210938 29.15625 334.707031 C 41.839844 348.578125 70.003906 360.140625 98.082031 360.140625 C 123.613281 360.140625 150.285156 352.605469 164.730469 340.851562 L 345.90625 238.9375 C 348.976562 237.460938 351.835938 235.863281 354.410156 234.152344 L 354.433594 234.140625 L 354.429688 234.140625 C 357.816406 231.886719 360.726562 229.441406 363.042969 226.832031 C 370.355469 218.574219 369.671875 212.875 369.671875 201.65625 Z M 369.671875 201.65625 " fill-opacity="1" fill-rule="nonzero"/><path fill="#d4dd6a" d="M 236.925781 274.984375 C 228.679688 260.09375 208.027344 253.074219 192.21875 247.53125 C 171.847656 240.386719 150.800781 234.152344 129.582031 229.5625 C 112.039062 225.765625 93.734375 223.65625 76.121094 228.289062 C 58.277344 232.980469 43.140625 243.5625 29.113281 254.425781 C 23.003906 259.152344 27.761719 262.730469 21.597656 267.394531 L 19.277344 268.726562 C 9.414062 269.433594 3.480469 278.113281 2.269531 286.214844 C 0.5 298.042969 4.71875 312.355469 15.039062 320.089844 C 20.324219 324.054688 26.699219 326.453125 33.230469 328.027344 C 37.566406 329.066406 42.265625 328.257812 46.433594 329.972656 C 50.453125 331.625 53.175781 335.054688 55.578125 338.324219 C 59.054688 343.066406 63.03125 346.804688 68.234375 349.941406 C 78.179688 355.949219 90.222656 358.945312 102.058594 357.460938 C 115.714844 355.75 126.949219 348.03125 141.246094 348.851562 C 154.660156 349.617188 167.191406 351.734375 180.433594 348.179688 C 191.828125 345.121094 202.570312 339.351562 211.46875 332.136719 C 216.644531 327.9375 221.492188 323.140625 225.75 318.128906 C 235.667969 306.457031 245.050781 289.652344 236.925781 274.984375 Z M 236.925781 274.984375 " fill-opacity="1" fill-rule="nonzero"/><path fill="#c1c65f" d="M 357.617188 192.84375 C 349.367188 177.953125 328.714844 170.933594 312.910156 165.390625 C 292.539062 158.246094 271.488281 152.011719 250.273438 147.425781 C 232.726562 143.628906 214.425781 141.515625 196.8125 146.148438 C 178.964844 150.839844 163.832031 161.421875 149.800781 172.285156 C 143.695312 177.011719 148.453125 180.589844 142.289062 185.253906 L 139.96875 186.585938 C 130.105469 187.292969 124.171875 195.972656 122.960938 204.074219 C 121.191406 215.902344 125.410156 230.214844 135.730469 237.949219 C 141.011719 241.914062 147.386719 244.3125 153.917969 245.886719 C 158.257812 246.925781 162.957031 246.117188 167.125 247.832031 C 171.140625 249.484375 173.867188 252.914062 176.265625 256.183594 C 179.746094 260.925781 183.722656 264.664062 188.921875 267.800781 C 198.867188 273.808594 210.910156 276.808594 222.746094 275.320312 C 236.40625 273.609375 247.640625 265.890625 261.933594 266.710938 C 275.347656 267.480469 287.882812 269.59375 301.125 266.039062 C 312.515625 262.980469 323.257812 257.210938 332.160156 249.996094 C 337.332031 245.800781 342.183594 241 346.441406 235.988281 C 356.355469 224.320312 365.742188 207.511719 357.617188 192.84375 Z M 357.617188 192.84375 " fill-opacity="1" fill-rule="nonzero"/><path fill="#c0374f" d="M 186.183594 296.796875 C 186.183594 298.355469 186.066406 299.914062 185.832031 301.464844 C 185.597656 303.015625 185.246094 304.558594 184.78125 306.085938 C 184.3125 307.617188 183.730469 309.128906 183.039062 310.621094 C 182.34375 312.113281 181.535156 313.578125 180.621094 315.019531 C 179.703125 316.460938 178.683594 317.867188 177.554688 319.242188 C 176.425781 320.617188 175.195312 321.953125 173.867188 323.25 C 172.535156 324.546875 171.113281 325.800781 169.59375 327.003906 C 168.074219 328.210938 166.46875 329.363281 164.777344 330.46875 C 163.082031 331.570312 161.3125 332.617188 159.460938 333.605469 C 157.609375 334.59375 155.691406 335.523438 153.699219 336.386719 C 151.710938 337.253906 149.660156 338.054688 147.546875 338.792969 C 145.4375 339.527344 143.273438 340.191406 141.0625 340.789062 C 138.851562 341.386719 136.601562 341.910156 134.308594 342.363281 C 132.019531 342.816406 129.699219 343.195312 127.351562 343.5 C 125.003906 343.800781 122.640625 344.03125 120.257812 344.183594 C 117.875 344.335938 115.484375 344.414062 113.09375 344.414062 C 110.699219 344.414062 108.308594 344.335938 105.929688 344.183594 C 103.546875 344.03125 101.179688 343.800781 98.832031 343.5 C 96.484375 343.195312 94.164062 342.816406 91.875 342.363281 C 89.582031 341.910156 87.332031 341.386719 85.121094 340.789062 C 82.910156 340.191406 80.746094 339.527344 78.636719 338.789062 C 76.527344 338.054688 74.476562 337.253906 72.484375 336.386719 C 70.492188 335.523438 68.574219 334.59375 66.722656 333.605469 C 64.871094 332.617188 63.101562 331.570312 61.40625 330.46875 C 59.714844 329.363281 58.109375 328.210938 56.589844 327.003906 C 55.074219 325.800781 53.648438 324.546875 52.316406 323.25 C 50.988281 321.953125 49.757812 320.617188 48.628906 319.242188 C 47.503906 317.867188 46.480469 316.460938 45.5625 315.019531 C 44.648438 313.578125 43.84375 312.113281 43.148438 310.621094 C 42.453125 309.128906 41.871094 307.617188 41.402344 306.085938 C 40.9375 304.558594 40.585938 303.015625 40.351562 301.464844 C 40.117188 299.914062 40 298.355469 40 296.796875 C 40 295.238281 40.117188 293.683594 40.351562 292.128906 C 40.585938 290.578125 40.9375 289.039062 41.402344 287.507812 C 41.871094 285.976562 42.453125 284.46875 43.148438 282.976562 C 43.84375 281.484375 44.648438 280.015625 45.5625 278.574219 C 46.480469 277.136719 47.503906 275.726562 48.628906 274.351562 C 49.757812 272.976562 50.988281 271.640625 52.316406 270.34375 C 53.648438 269.046875 55.074219 267.796875 56.589844 266.589844 C 58.109375 265.382812 59.714844 264.230469 61.40625 263.128906 C 63.101562 262.023438 64.871094 260.980469 66.722656 259.988281 C 68.574219 259 70.492188 258.074219 72.484375 257.207031 C 74.476562 256.339844 76.527344 255.539062 78.636719 254.804688 C 80.746094 254.070312 82.910156 253.402344 85.121094 252.804688 C 87.332031 252.210938 89.582031 251.683594 91.875 251.230469 C 94.164062 250.777344 96.484375 250.402344 98.832031 250.097656 C 101.179688 249.792969 103.546875 249.5625 105.929688 249.410156 C 108.308594 249.257812 110.699219 249.179688 113.09375 249.179688 C 115.484375 249.179688 117.875 249.257812 120.257812 249.410156 C 122.640625 249.5625 125.003906 249.792969 127.351562 250.097656 C 129.699219 250.402344 132.019531 250.777344 134.308594 251.230469 C 136.601562 251.683594 138.851562 252.210938 141.0625 252.804688 C 143.273438 253.402344 145.4375 254.070312 147.546875 254.804688 C 149.660156 255.539062 151.710938 256.339844 153.699219 257.207031 C 155.691406 258.074219 157.609375 259 159.460938 259.988281 C 161.3125 260.980469 163.082031 262.023438 164.777344 263.128906 C 166.46875 264.230469 168.074219 265.382812 169.59375 266.589844 C 171.113281 267.796875 172.535156 269.046875 173.867188 270.34375 C 175.195312 271.640625 176.425781 272.976562 177.554688 274.351562 C 178.683594 275.726562 179.703125 277.136719 180.621094 278.574219 C 181.535156 280.015625 182.34375 281.484375 183.039062 282.976562 C 183.730469 284.46875 184.3125 285.976562 184.78125 287.507812 C 185.246094 289.039062 185.597656 290.578125 185.832031 292.128906 C 186.066406 293.683594 186.183594 295.238281 186.183594 296.796875 Z M 186.183594 296.796875 " fill-opacity="1" fill-rule="nonzero"/><path fill="#e83f60" d="M 186.050781 286.683594 C 186.050781 288.246094 185.933594 289.800781 185.699219 291.351562 C 185.464844 292.90625 185.113281 294.445312 184.648438 295.976562 C 184.179688 297.503906 183.601562 299.015625 182.90625 300.507812 C 182.210938 302 181.40625 303.46875 180.488281 304.910156 C 179.574219 306.347656 178.550781 307.757812 177.421875 309.132812 C 176.292969 310.507812 175.0625 311.84375 173.734375 313.140625 C 172.402344 314.4375 170.980469 315.6875 169.460938 316.894531 C 167.941406 318.101562 166.335938 319.253906 164.644531 320.355469 C 162.953125 321.460938 161.179688 322.503906 159.328125 323.496094 C 157.480469 324.484375 155.558594 325.414062 153.566406 326.277344 C 151.578125 327.144531 149.527344 327.945312 147.414062 328.679688 C 145.304688 329.417969 143.144531 330.082031 140.933594 330.679688 C 138.71875 331.277344 136.46875 331.800781 134.179688 332.253906 C 131.886719 332.707031 129.566406 333.085938 127.21875 333.390625 C 124.871094 333.695312 122.507812 333.921875 120.125 334.074219 C 117.742188 334.226562 115.355469 334.304688 112.960938 334.304688 C 110.566406 334.304688 108.179688 334.226562 105.796875 334.074219 C 103.414062 333.921875 101.050781 333.695312 98.703125 333.390625 C 96.355469 333.085938 94.035156 332.707031 91.742188 332.253906 C 89.453125 331.800781 87.203125 331.277344 84.992188 330.679688 C 82.777344 330.082031 80.617188 329.417969 78.507812 328.679688 C 76.394531 327.945312 74.34375 327.144531 72.355469 326.277344 C 70.363281 325.414062 68.441406 324.484375 66.59375 323.496094 C 64.742188 322.503906 62.96875 321.460938 61.277344 320.355469 C 59.585938 319.253906 57.980469 318.101562 56.460938 316.894531 C 54.941406 315.6875 53.519531 314.4375 52.1875 313.140625 C 50.859375 311.84375 49.628906 310.507812 48.5 309.132812 C 47.371094 307.757812 46.351562 306.347656 45.433594 304.910156 C 44.519531 303.46875 43.710938 302 43.015625 300.507812 C 42.324219 299.015625 41.742188 297.503906 41.273438 295.976562 C 40.808594 294.445312 40.457031 292.90625 40.222656 291.351562 C 39.988281 289.800781 39.871094 288.246094 39.871094 286.683594 C 39.871094 285.125 39.988281 283.570312 40.222656 282.019531 C 40.457031 280.464844 40.808594 278.925781 41.273438 277.394531 C 41.742188 275.867188 42.324219 274.355469 43.015625 272.863281 C 43.710938 271.371094 44.519531 269.902344 45.433594 268.460938 C 46.351562 267.019531 47.371094 265.613281 48.5 264.238281 C 49.628906 262.863281 50.859375 261.527344 52.1875 260.230469 C 53.519531 258.933594 54.941406 257.683594 56.460938 256.476562 C 57.980469 255.269531 59.585938 254.117188 61.277344 253.011719 C 62.96875 251.910156 64.742188 250.863281 66.59375 249.875 C 68.441406 248.886719 70.363281 247.957031 72.355469 247.089844 C 74.34375 246.226562 76.394531 245.425781 78.507812 244.6875 C 80.617188 243.953125 82.777344 243.289062 84.992188 242.691406 C 87.203125 242.09375 89.453125 241.570312 91.742188 241.117188 C 94.035156 240.664062 96.355469 240.285156 98.703125 239.980469 C 101.050781 239.675781 103.414062 239.449219 105.796875 239.296875 C 108.179688 239.144531 110.566406 239.066406 112.960938 239.066406 C 115.355469 239.066406 117.742188 239.144531 120.125 239.296875 C 122.507812 239.449219 124.871094 239.675781 127.21875 239.980469 C 129.566406 240.285156 131.886719 240.664062 134.179688 241.117188 C 136.46875 241.570312 138.71875 242.09375 140.933594 242.691406 C 143.144531 243.289062 145.304688 243.953125 147.414062 244.6875 C 149.527344 245.425781 151.578125 246.226562 153.566406 247.089844 C 155.558594 247.957031 157.480469 248.886719 159.328125 249.875 C 161.179688 250.863281 162.953125 251.910156 164.644531 253.011719 C 166.335938 254.117188 167.941406 255.269531 169.460938 256.476562 C 170.980469 257.683594 172.402344 258.933594 173.734375 260.230469 C 175.0625 261.527344 176.292969 262.863281 177.421875 264.238281 C 178.550781 265.613281 179.574219 267.019531 180.488281 268.460938 C 181.40625 269.902344 182.210938 271.371094 182.90625 272.863281 C 183.601562 274.355469 184.179688 275.867188 184.648438 277.394531 C 185.113281 278.925781 185.464844 280.464844 185.699219 282.019531 C 185.933594 283.570312 186.050781 285.125 186.050781 286.683594 Z M 186.050781 286.683594 " fill-opacity="1" fill-rule="nonzero"/><path fill="#c0374f" d="M 281.898438 244.125 C 281.898438 245.6875 281.78125 247.242188 281.546875 248.792969 C 281.3125 250.34375 280.960938 251.886719 280.492188 253.414062 C 280.027344 254.945312 279.445312 256.457031 278.75 257.949219 C 278.054688 259.441406 277.25 260.90625 276.332031 262.347656 C 275.417969 263.789062 274.394531 265.195312 273.265625 266.570312 C 272.136719 267.949219 270.910156 269.285156 269.578125 270.582031 C 268.25 271.875 266.824219 273.128906 265.304688 274.332031 C 263.789062 275.539062 262.183594 276.691406 260.488281 277.796875 C 258.796875 278.898438 257.023438 279.945312 255.175781 280.933594 C 253.324219 281.921875 251.402344 282.851562 249.414062 283.71875 C 247.421875 284.582031 245.371094 285.382812 243.261719 286.121094 C 241.148438 286.855469 238.988281 287.519531 236.777344 288.117188 C 234.5625 288.714844 232.3125 289.238281 230.023438 289.691406 C 227.730469 290.144531 225.414062 290.523438 223.0625 290.828125 C 220.714844 291.132812 218.351562 291.359375 215.96875 291.511719 C 213.585938 291.664062 211.199219 291.742188 208.804688 291.742188 C 206.410156 291.742188 204.023438 291.664062 201.640625 291.511719 C 199.257812 291.359375 196.894531 291.132812 194.546875 290.828125 C 192.195312 290.523438 189.878906 290.144531 187.585938 289.691406 C 185.296875 289.238281 183.046875 288.714844 180.832031 288.117188 C 178.621094 287.519531 176.460938 286.855469 174.347656 286.121094 C 172.238281 285.382812 170.1875 284.582031 168.195312 283.71875 C 166.207031 282.851562 164.285156 281.921875 162.433594 280.933594 C 160.585938 279.945312 158.8125 278.898438 157.121094 277.796875 C 155.429688 276.691406 153.820312 275.539062 152.304688 274.332031 C 150.785156 273.128906 149.359375 271.875 148.03125 270.582031 C 146.699219 269.285156 145.472656 267.949219 144.34375 266.570312 C 143.214844 265.195312 142.191406 263.789062 141.277344 262.347656 C 140.359375 260.90625 139.554688 259.441406 138.859375 257.949219 C 138.164062 256.457031 137.582031 254.945312 137.117188 253.414062 C 136.648438 251.886719 136.296875 250.34375 136.0625 248.792969 C 135.828125 247.242188 135.710938 245.6875 135.710938 244.125 C 135.710938 242.566406 135.828125 241.011719 136.0625 239.457031 C 136.300781 237.90625 136.648438 236.367188 137.117188 234.835938 C 137.582031 233.308594 138.164062 231.796875 138.859375 230.304688 C 139.554688 228.8125 140.359375 227.34375 141.277344 225.902344 C 142.191406 224.464844 143.214844 223.054688 144.34375 221.679688 C 145.472656 220.304688 146.699219 218.96875 148.03125 217.671875 C 149.359375 216.375 150.785156 215.125 152.304688 213.917969 C 153.820312 212.714844 155.429688 211.558594 157.121094 210.457031 C 158.8125 209.355469 160.585938 208.308594 162.433594 207.320312 C 164.285156 206.328125 166.207031 205.402344 168.195312 204.535156 C 170.1875 203.667969 172.238281 202.867188 174.347656 202.132812 C 176.460938 201.398438 178.621094 200.730469 180.832031 200.132812 C 183.046875 199.539062 185.296875 199.011719 187.585938 198.558594 C 189.878906 198.109375 192.195312 197.730469 194.546875 197.425781 C 196.894531 197.121094 199.257812 196.890625 201.640625 196.738281 C 204.023438 196.585938 206.410156 196.511719 208.804688 196.511719 C 211.199219 196.511719 213.585938 196.585938 215.96875 196.738281 C 218.351562 196.890625 220.714844 197.121094 223.0625 197.425781 C 225.414062 197.730469 227.730469 198.109375 230.023438 198.558594 C 232.3125 199.011719 234.5625 199.539062 236.777344 200.132812 C 238.988281 200.730469 241.148438 201.398438 243.261719 202.132812 C 245.371094 202.867188 247.421875 203.667969 249.414062 204.535156 C 251.402344 205.402344 253.324219 206.328125 255.175781 207.320312 C 257.023438 208.308594 258.796875 209.355469 260.488281 210.457031 C 262.183594 211.558594 263.789062 212.714844 265.304688 213.917969 C 266.824219 215.125 268.25 216.375 269.578125 217.671875 C 270.910156 218.96875 272.136719 220.304688 273.265625 221.679688 C 274.394531 223.054688 275.417969 224.464844 276.332031 225.902344 C 277.25 227.34375 278.054688 228.8125 278.75 230.304688 C 279.445312 231.796875 280.027344 233.308594 280.492188 234.835938 C 280.960938 236.367188 281.3125 237.90625 281.546875 239.457031 C 281.78125 241.011719 281.898438 242.566406 281.898438 244.125 Z M 281.898438 244.125 " fill-opacity="1" fill-rule="nonzero"/><path fill="#e83f60" d="M 281.761719 234.011719 C 281.761719 235.570312 281.644531 237.128906 281.410156 238.679688 C 281.175781 240.230469 280.824219 241.773438 280.359375 243.300781 C 279.890625 244.832031 279.3125 246.34375 278.617188 247.835938 C 277.921875 249.328125 277.117188 250.792969 276.199219 252.234375 C 275.285156 253.675781 274.261719 255.082031 273.132812 256.457031 C 272.003906 257.832031 270.773438 259.167969 269.445312 260.464844 C 268.113281 261.761719 266.691406 263.015625 265.171875 264.21875 C 263.652344 265.425781 262.046875 266.578125 260.355469 267.683594 C 258.664062 268.785156 256.890625 269.832031 255.039062 270.820312 C 253.191406 271.808594 251.269531 272.738281 249.277344 273.605469 C 247.289062 274.46875 245.238281 275.269531 243.125 276.007812 C 241.015625 276.742188 238.855469 277.40625 236.644531 278.003906 C 234.429688 278.601562 232.179688 279.125 229.890625 279.578125 C 227.597656 280.03125 225.277344 280.410156 222.929688 280.714844 C 220.582031 281.019531 218.21875 281.246094 215.835938 281.398438 C 213.453125 281.550781 211.066406 281.628906 208.671875 281.628906 C 206.277344 281.628906 203.890625 281.550781 201.507812 281.398438 C 199.125 281.246094 196.761719 281.019531 194.414062 280.714844 C 192.066406 280.410156 189.746094 280.03125 187.453125 279.578125 C 185.164062 279.125 182.914062 278.601562 180.703125 278.003906 C 178.488281 277.40625 176.328125 276.742188 174.21875 276.007812 C 172.105469 275.269531 170.054688 274.46875 168.066406 273.605469 C 166.074219 272.738281 164.152344 271.808594 162.304688 270.820312 C 160.453125 269.832031 158.679688 268.785156 156.988281 267.683594 C 155.296875 266.578125 153.691406 265.425781 152.171875 264.21875 C 150.652344 263.015625 149.230469 261.761719 147.898438 260.464844 C 146.570312 259.167969 145.339844 257.832031 144.210938 256.457031 C 143.082031 255.082031 142.0625 253.675781 141.144531 252.234375 C 140.230469 250.792969 139.421875 249.328125 138.726562 247.835938 C 138.035156 246.34375 137.453125 244.832031 136.984375 243.300781 C 136.519531 241.773438 136.167969 240.230469 135.933594 238.679688 C 135.699219 237.128906 135.582031 235.570312 135.582031 234.011719 C 135.582031 232.453125 135.699219 230.898438 135.933594 229.34375 C 136.167969 227.792969 136.519531 226.253906 136.984375 224.722656 C 137.453125 223.195312 138.035156 221.683594 138.726562 220.191406 C 139.421875 218.699219 140.230469 217.230469 141.144531 215.789062 C 142.0625 214.351562 143.082031 212.941406 144.210938 211.566406 C 145.339844 210.191406 146.570312 208.855469 147.898438 207.558594 C 149.230469 206.261719 150.652344 205.011719 152.171875 203.804688 C 153.691406 202.601562 155.296875 201.445312 156.988281 200.34375 C 158.679688 199.238281 160.453125 198.195312 162.304688 197.203125 C 164.152344 196.214844 166.074219 195.289062 168.066406 194.421875 C 170.054688 193.554688 172.105469 192.753906 174.21875 192.019531 C 176.328125 191.285156 178.488281 190.617188 180.703125 190.019531 C 182.914062 189.425781 185.164062 188.898438 187.453125 188.445312 C 189.746094 187.996094 192.066406 187.617188 194.414062 187.3125 C 196.761719 187.007812 199.125 186.777344 201.507812 186.625 C 203.890625 186.472656 206.277344 186.398438 208.671875 186.398438 C 211.066406 186.398438 213.453125 186.472656 215.835938 186.625 C 218.21875 186.777344 220.582031 187.007812 222.929688 187.3125 C 225.277344 187.617188 227.597656 187.996094 229.890625 188.445312 C 232.179688 188.898438 234.429688 189.425781 236.644531 190.019531 C 238.855469 190.617188 241.015625 191.285156 243.125 192.019531 C 245.238281 192.753906 247.289062 193.554688 249.277344 194.421875 C 251.269531 195.289062 253.191406 196.214844 255.039062 197.203125 C 256.890625 198.195312 258.664062 199.238281 260.355469 200.34375 C 262.046875 201.445312 263.652344 202.601562 265.171875 203.804688 C 266.691406 205.011719 268.113281 206.261719 269.445312 207.558594 C 270.773438 208.855469 272.003906 210.191406 273.132812 211.566406 C 274.261719 212.941406 275.285156 214.351562 276.199219 215.789062 C 277.117188 217.230469 277.921875 218.699219 278.617188 220.191406 C 279.3125 221.683594 279.890625 223.195312 280.359375 224.722656 C 280.824219 226.253906 281.175781 227.792969 281.410156 229.34375 C 281.644531 230.898438 281.761719 232.453125 281.761719 234.011719 Z M 281.761719 234.011719 " fill-opacity="1" fill-rule="nonzero"/><path fill="#c0374f" d="M 364.734375 204.867188 C 364.734375 206.15625 364.636719 207.441406 364.441406 208.722656 C 364.25 210.003906 363.960938 211.277344 363.574219 212.542969 C 363.1875 213.804688 362.707031 215.054688 362.132812 216.285156 C 361.558594 217.519531 360.894531 218.730469 360.136719 219.921875 C 359.378906 221.113281 358.535156 222.277344 357.601562 223.414062 C 356.671875 224.546875 355.65625 225.652344 354.554688 226.722656 C 353.457031 227.796875 352.28125 228.828125 351.023438 229.824219 C 349.769531 230.820312 348.441406 231.773438 347.042969 232.6875 C 345.644531 233.597656 344.183594 234.460938 342.652344 235.277344 C 341.125 236.097656 339.539062 236.863281 337.894531 237.578125 C 336.246094 238.292969 334.554688 238.957031 332.808594 239.5625 C 331.066406 240.171875 329.277344 240.722656 327.453125 241.214844 C 325.625 241.707031 323.761719 242.140625 321.871094 242.515625 C 319.976562 242.890625 318.0625 243.203125 316.121094 243.453125 C 314.179688 243.703125 312.226562 243.894531 310.257812 244.019531 C 308.289062 244.144531 306.316406 244.210938 304.339844 244.210938 C 302.359375 244.210938 300.386719 244.144531 298.417969 244.019531 C 296.449219 243.894531 294.496094 243.703125 292.558594 243.453125 C 290.617188 243.203125 288.699219 242.890625 286.808594 242.515625 C 284.914062 242.140625 283.054688 241.707031 281.226562 241.214844 C 279.398438 240.722656 277.613281 240.171875 275.871094 239.5625 C 274.125 238.957031 272.429688 238.292969 270.785156 237.578125 C 269.140625 236.863281 267.554688 236.097656 266.023438 235.277344 C 264.496094 234.460938 263.03125 233.597656 261.632812 232.6875 C 260.234375 231.773438 258.910156 230.820312 257.652344 229.824219 C 256.398438 228.828125 255.222656 227.796875 254.121094 226.722656 C 253.023438 225.652344 252.007812 224.546875 251.074219 223.414062 C 250.144531 222.277344 249.300781 221.113281 248.542969 219.921875 C 247.785156 218.730469 247.121094 217.519531 246.546875 216.285156 C 245.972656 215.054688 245.492188 213.804688 245.105469 212.542969 C 244.71875 211.277344 244.429688 210.003906 244.234375 208.722656 C 244.042969 207.441406 243.945312 206.15625 243.945312 204.867188 C 243.945312 203.578125 244.042969 202.292969 244.234375 201.007812 C 244.429688 199.726562 244.71875 198.453125 245.105469 197.191406 C 245.492188 195.925781 245.972656 194.679688 246.546875 193.445312 C 247.121094 192.210938 247.785156 191 248.542969 189.808594 C 249.300781 188.621094 250.144531 187.457031 251.074219 186.320312 C 252.007812 185.183594 253.023438 184.078125 254.121094 183.007812 C 255.222656 181.9375 256.398438 180.902344 257.652344 179.90625 C 258.910156 178.910156 260.234375 177.957031 261.632812 177.046875 C 263.03125 176.136719 264.496094 175.269531 266.023438 174.453125 C 267.554688 173.636719 269.140625 172.867188 270.785156 172.152344 C 272.429688 171.4375 274.125 170.777344 275.871094 170.167969 C 277.613281 169.5625 279.398438 169.011719 281.226562 168.515625 C 283.054688 168.023438 284.914062 167.589844 286.808594 167.21875 C 288.699219 166.84375 290.617188 166.53125 292.558594 166.277344 C 294.496094 166.027344 296.449219 165.839844 298.417969 165.710938 C 300.386719 165.585938 302.359375 165.523438 304.339844 165.523438 C 306.316406 165.523438 308.289062 165.585938 310.257812 165.710938 C 312.226562 165.839844 314.179688 166.027344 316.121094 166.277344 C 318.0625 166.53125 319.976562 166.84375 321.871094 167.21875 C 323.761719 167.589844 325.625 168.023438 327.453125 168.515625 C 329.277344 169.011719 331.066406 169.5625 332.808594 170.167969 C 334.554688 170.777344 336.246094 171.4375 337.894531 172.152344 C 339.539062 172.867188 341.125 173.636719 342.652344 174.453125 C 344.183594 175.269531 345.644531 176.136719 347.042969 177.046875 C 348.441406 177.957031 349.769531 178.910156 351.023438 179.90625 C 352.28125 180.902344 353.457031 181.9375 354.554688 183.007812 C 355.65625 184.078125 356.671875 185.183594 357.601562 186.320312 C 358.535156 187.457031 359.378906 188.621094 360.136719 189.808594 C 360.894531 191 361.558594 192.210938 362.132812 193.445312 C 362.707031 194.679688 363.1875 195.925781 363.574219 197.191406 C 363.960938 198.453125 364.25 199.726562 364.441406 201.007812 C 364.636719 202.292969 364.734375 203.578125 364.734375 204.867188 Z M 364.734375 204.867188 " fill-opacity="1" fill-rule="nonzero"/><path fill="#e83f60" d="M 364.625 196.507812 C 364.625 197.796875 364.527344 199.082031 364.332031 200.363281 C 364.140625 201.648438 363.851562 202.921875 363.464844 204.183594 C 363.078125 205.449219 362.597656 206.695312 362.023438 207.929688 C 361.449219 209.164062 360.785156 210.375 360.027344 211.566406 C 359.269531 212.753906 358.425781 213.917969 357.492188 215.054688 C 356.5625 216.191406 355.546875 217.296875 354.445312 218.367188 C 353.347656 219.4375 352.171875 220.472656 350.914062 221.46875 C 349.660156 222.464844 348.332031 223.417969 346.933594 224.328125 C 345.535156 225.242188 344.074219 226.105469 342.542969 226.921875 C 341.015625 227.738281 339.429688 228.507812 337.785156 229.222656 C 336.136719 229.9375 334.445312 230.601562 332.699219 231.207031 C 330.957031 231.816406 329.167969 232.367188 327.34375 232.859375 C 325.515625 233.351562 323.65625 233.785156 321.761719 234.160156 C 319.867188 234.535156 317.953125 234.847656 316.011719 235.097656 C 314.074219 235.347656 312.117188 235.539062 310.148438 235.664062 C 308.179688 235.789062 306.207031 235.851562 304.230469 235.851562 C 302.25 235.851562 300.277344 235.789062 298.308594 235.664062 C 296.339844 235.539062 294.386719 235.347656 292.449219 235.097656 C 290.507812 234.847656 288.589844 234.535156 286.699219 234.160156 C 284.804688 233.785156 282.945312 233.351562 281.117188 232.859375 C 279.289062 232.367188 277.503906 231.816406 275.761719 231.207031 C 274.015625 230.601562 272.320312 229.9375 270.675781 229.222656 C 269.03125 228.507812 267.445312 227.738281 265.917969 226.921875 C 264.386719 226.105469 262.921875 225.242188 261.523438 224.328125 C 260.125 223.417969 258.800781 222.464844 257.542969 221.46875 C 256.289062 220.472656 255.113281 219.4375 254.011719 218.367188 C 252.914062 217.296875 251.898438 216.191406 250.964844 215.054688 C 250.035156 213.917969 249.191406 212.753906 248.433594 211.566406 C 247.675781 210.375 247.011719 209.164062 246.4375 207.929688 C 245.863281 206.695312 245.382812 205.449219 244.996094 204.183594 C 244.609375 202.921875 244.320312 201.648438 244.125 200.363281 C 243.933594 199.082031 243.835938 197.796875 243.835938 196.507812 C 243.835938 195.21875 243.933594 193.933594 244.125 192.652344 C 244.320312 191.371094 244.609375 190.097656 244.996094 188.832031 C 245.382812 187.570312 245.863281 186.320312 246.4375 185.085938 C 247.011719 183.855469 247.675781 182.640625 248.433594 181.453125 C 249.191406 180.261719 250.035156 179.097656 250.964844 177.960938 C 251.898438 176.824219 252.914062 175.722656 254.011719 174.648438 C 255.113281 173.578125 256.289062 172.542969 257.542969 171.546875 C 258.800781 170.550781 260.125 169.597656 261.523438 168.6875 C 262.921875 167.777344 264.386719 166.914062 265.917969 166.09375 C 267.445312 165.277344 269.03125 164.511719 270.675781 163.792969 C 272.320312 163.078125 274.015625 162.417969 275.761719 161.808594 C 277.503906 161.203125 279.289062 160.652344 281.117188 160.160156 C 282.945312 159.664062 284.804688 159.230469 286.699219 158.859375 C 288.589844 158.484375 290.507812 158.171875 292.449219 157.917969 C 294.386719 157.667969 296.339844 157.480469 298.308594 157.351562 C 300.277344 157.226562 302.25 157.164062 304.230469 157.164062 C 306.207031 157.164062 308.179688 157.226562 310.148438 157.351562 C 312.117188 157.480469 314.074219 157.667969 316.011719 157.917969 C 317.953125 158.171875 319.867188 158.484375 321.761719 158.859375 C 323.65625 159.230469 325.515625 159.664062 327.34375 160.160156 C 329.167969 160.652344 330.957031 161.203125 332.699219 161.808594 C 334.445312 162.417969 336.136719 163.078125 337.785156 163.792969 C 339.429688 164.511719 341.015625 165.277344 342.542969 166.09375 C 344.074219 166.914062 345.535156 167.777344 346.933594 168.6875 C 348.332031 169.597656 349.660156 170.550781 350.914062 171.546875 C 352.171875 172.542969 353.347656 173.578125 354.445312 174.648438 C 355.546875 175.722656 356.5625 176.824219 357.492188 177.960938 C 358.425781 179.097656 359.269531 180.261719 360.027344 181.453125 C 360.785156 182.640625 361.449219 183.855469 362.023438 185.085938 C 362.597656 186.320312 363.078125 187.570312 363.464844 188.832031 C 363.851562 190.097656 364.140625 191.371094 364.332031 192.652344 C 364.527344 193.933594 364.625 195.21875 364.625 196.507812 Z M 364.625 196.507812 " fill-opacity="1" fill-rule="nonzero"/><path fill="#ffd56e" d="M 360.6875 168.925781 C 360.6875 131.527344 326.5 101.199219 284.359375 101.199219 C 264.433594 101.199219 246.296875 107.980469 232.703125 119.074219 L 50.960938 217.980469 C 49.496094 218.726562 48.058594 219.503906 46.652344 220.328125 L 46.554688 220.378906 L 46.558594 220.378906 C 25.539062 232.742188 11.664062 253.929688 11.664062 277.996094 C 11.664062 289.710938 12.40625 293.476562 20.171875 301.976562 C 32.855469 315.847656 61.019531 327.410156 89.097656 327.410156 C 114.628906 327.410156 141.300781 319.875 155.746094 308.121094 L 336.921875 206.207031 C 339.992188 204.730469 342.851562 203.132812 345.425781 201.421875 L 345.449219 201.410156 L 345.445312 201.410156 C 348.832031 199.15625 351.742188 196.707031 354.058594 194.101562 C 361.371094 185.84375 360.6875 180.144531 360.6875 168.925781 Z M 360.6875 168.925781 " fill-opacity="1" fill-rule="nonzero"/><g clip-path="url(#7b4cd08da1)"><path fill="#f9b360" d="M 360.6875 154.304688 C 360.6875 116.910156 326.5 86.578125 284.359375 86.578125 C 264.433594 86.578125 246.296875 93.363281 232.703125 104.457031 L 50.960938 203.363281 C 49.496094 204.105469 48.058594 204.886719 46.652344 205.707031 L 46.554688 205.757812 L 46.558594 205.761719 C 25.539062 218.125 11.664062 239.3125 11.664062 263.378906 C 11.664062 275.09375 12.40625 278.859375 20.171875 287.359375 C 32.855469 301.230469 61.019531 312.789062 89.097656 312.789062 C 114.628906 312.789062 141.300781 305.253906 155.746094 293.503906 L 336.921875 191.585938 C 339.992188 190.109375 342.851562 188.515625 345.425781 186.804688 L 345.449219 186.792969 L 345.445312 186.789062 C 348.832031 184.539062 351.742188 182.089844 354.058594 179.480469 C 361.371094 171.226562 360.6875 165.527344 360.6875 154.304688 Z M 360.6875 154.304688 " fill-opacity="1" fill-rule="nonzero"/></g><path fill="#ea9052" d="M 60.152344 220.28125 C 60.152344 208.964844 70.5 199.785156 83.25 199.785156 C 89.28125 199.785156 94.769531 201.835938 98.882812 205.191406 L 153.882812 235.125 C 154.328125 235.351562 154.761719 235.585938 155.1875 235.835938 L 155.214844 235.851562 C 161.578125 239.59375 165.773438 246.003906 165.773438 253.285156 C 165.773438 256.832031 165.550781 257.972656 163.199219 260.546875 C 159.363281 264.746094 150.839844 268.242188 142.34375 268.242188 C 134.617188 268.242188 126.542969 265.960938 122.171875 262.402344 L 67.34375 231.558594 C 66.414062 231.113281 65.550781 230.632812 64.773438 230.113281 L 64.765625 230.109375 C 63.742188 229.425781 62.859375 228.6875 62.160156 227.898438 C 59.945312 225.398438 60.152344 223.675781 60.152344 220.28125 Z M 60.152344 220.28125 " fill-opacity="1" fill-rule="nonzero"/><path fill="#f9b360" d="M 72.003906 225.167969 C 72.003906 216.363281 80.050781 209.222656 89.976562 209.222656 C 94.667969 209.222656 98.9375 210.820312 102.140625 213.433594 L 144.933594 236.71875 C 145.28125 236.894531 145.617188 237.078125 145.949219 237.273438 L 145.972656 237.285156 C 150.921875 240.199219 154.1875 245.1875 154.1875 250.855469 C 154.1875 253.609375 154.011719 254.5 152.183594 256.5 C 149.199219 259.765625 142.566406 262.488281 135.953125 262.488281 C 129.941406 262.488281 123.660156 260.714844 120.261719 257.949219 L 77.597656 233.949219 C 76.875 233.601562 76.203125 233.226562 75.59375 232.824219 L 75.589844 232.820312 C 74.792969 232.289062 74.109375 231.710938 73.5625 231.101562 C 71.839844 229.152344 72.003906 227.808594 72.003906 225.167969 Z M 72.003906 225.167969 " fill-opacity="1" fill-rule="nonzero"/><path fill="#ea9052" d="M 138.324219 179.5625 C 138.324219 168.246094 148.667969 159.070312 161.421875 159.070312 C 167.449219 159.070312 172.941406 161.121094 177.054688 164.480469 L 232.054688 194.414062 C 232.5 194.636719 232.933594 194.871094 233.359375 195.121094 L 233.386719 195.136719 C 239.75 198.878906 243.945312 205.292969 243.945312 212.574219 C 243.945312 216.117188 243.722656 217.257812 241.371094 219.832031 C 237.53125 224.027344 229.011719 227.523438 220.511719 227.523438 C 212.785156 227.523438 204.714844 225.246094 200.34375 221.691406 L 145.515625 190.847656 C 144.585938 190.398438 143.722656 189.917969 142.941406 189.398438 L 142.9375 189.394531 C 141.910156 188.710938 141.03125 187.972656 140.332031 187.183594 C 138.113281 184.6875 138.324219 182.960938 138.324219 179.5625 Z M 138.324219 179.5625 " fill-opacity="1" fill-rule="nonzero"/><path fill="#ea9052" d="M 219.164062 132.648438 C 219.164062 121.332031 229.511719 112.152344 242.261719 112.152344 C 248.292969 112.152344 253.78125 114.203125 257.898438 117.5625 L 312.894531 147.492188 C 313.339844 147.71875 313.777344 147.953125 314.199219 148.203125 L 314.230469 148.21875 C 320.589844 151.964844 324.789062 158.371094 324.789062 165.65625 C 324.789062 169.203125 324.5625 170.339844 322.214844 172.914062 C 318.375 177.113281 309.851562 180.609375 301.355469 180.609375 C 293.628906 180.609375 285.558594 178.328125 281.1875 174.769531 L 226.355469 143.929688 C 225.425781 143.484375 224.5625 143.003906 223.78125 142.484375 L 223.777344 142.480469 C 222.753906 141.796875 221.871094 141.054688 221.171875 140.269531 C 218.957031 137.769531 219.164062 136.042969 219.164062 132.648438 Z M 219.164062 132.648438 " fill-opacity="1" fill-rule="nonzero"/><path fill="#f9b360" d="M 147.164062 182.609375 C 147.164062 173.808594 155.210938 166.664062 165.136719 166.664062 C 169.828125 166.664062 174.097656 168.261719 177.300781 170.875 L 220.097656 194.164062 C 220.441406 194.339844 220.78125 194.519531 221.109375 194.714844 L 221.132812 194.726562 C 226.082031 197.644531 229.351562 202.628906 229.351562 208.296875 C 229.351562 211.054688 229.175781 211.941406 227.347656 213.941406 C 224.359375 217.207031 217.726562 219.929688 211.117188 219.929688 C 205.105469 219.929688 198.824219 218.160156 195.421875 215.390625 L 152.761719 191.390625 C 152.039062 191.046875 151.363281 190.667969 150.757812 190.265625 L 150.753906 190.265625 L 150.753906 190.261719 C 149.957031 189.734375 149.269531 189.15625 148.726562 188.542969 C 147 186.59375 147.164062 185.253906 147.164062 182.609375 Z M 147.164062 182.609375 " fill-opacity="1" fill-rule="nonzero"/><path fill="#f9b360" d="M 230.882812 135.695312 C 230.882812 126.890625 238.933594 119.75 248.855469 119.75 C 253.546875 119.75 257.816406 121.34375 261.019531 123.957031 L 303.816406 147.246094 C 304.160156 147.421875 304.5 147.605469 304.832031 147.796875 L 304.851562 147.8125 C 309.800781 150.726562 313.070312 155.710938 313.070312 161.378906 C 313.070312 164.136719 312.894531 165.023438 311.066406 167.027344 C 308.078125 170.292969 301.445312 173.015625 294.835938 173.015625 C 288.824219 173.015625 282.542969 171.242188 279.140625 168.472656 L 236.476562 144.476562 C 235.753906 144.128906 235.082031 143.753906 234.476562 143.351562 L 234.472656 143.347656 C 233.675781 142.816406 232.988281 142.238281 232.445312 141.625 C 230.722656 139.679688 230.882812 138.335938 230.882812 135.695312 Z M 230.882812 135.695312 " fill-opacity="1" fill-rule="nonzero"/></svg>